# xmcd CD database file
#
# Track frame offsets:
#	150
#	14585
#	26153
#	41770
#	56423
#	69450
#	84203
#	97370
#	114240
#	126480
#	138958
#	152178
#	162153
#	174870
#
# Disc length: 2604 seconds
#
# Revision: 2
# Processed by: cddbd v1.5.2PL0 Copyright (c) Steve Scherf et al.
# Submitted via: CDex 1.51
#
DISCID=b90a2a0e
DTITLE=Big Sandy and His Fly-Rite Boys - It's Time!
DYEAR=2003
DGENRE=Western Swing
TTITLE0=Chalk It Up to the Blues
TTITLE1=Bayou Blue
TTITLE2=How Did You Love Somebody Like Me?
TTITLE3=Her Hair Is a Mess
TTITLE4=It's Time!
TTITLE5=Wishing Him Away
TTITLE6=I Hate Loving You
TTITLE7=Catalina
TTITLE8=(You Mean) Too Much to Me
TTITLE9=The Money Tree
TTITLE10=Love Debut
TTITLE11=Strollin' with Mary Jane
TTITLE12=Heaven Is the Other Way
TTITLE13=The Night Is for Dreamers
EXTD=YEAR: 2003
EXTT0=
EXTT1=
EXTT2=
EXTT3=
EXTT4=
EXTT5=
EXTT6=
EXTT7=
EXTT8=
EXTT9=
EXTT10=
EXTT11=
EXTT12=
EXTT13=
PLAYORDER=
